<svg xmlns="http://www.w3.org/2000/svg" viewBox="0 0 1200 722" role="img" aria-label="World map">
<style>
.l{fill:#e0e4ea;stroke:#cdd3db;stroke-width:.5}
@media (prefers-color-scheme:dark){.l{fill:#1c212b;stroke:#2a3140}}
</style>
<path class="l" d="M623 472L640 482L641 485L647 490L645 495L646 498L649 500L647 507L651 515L653 516L649 519L635 523L626 522L625 515L622 512L608 507L606 501L603 498L602 489L603 489L608 483L607 479L608 478L608 476L607 473L623 472ZM425 336L425 345L409 344L410 357L405 358L404 360L405 367L387 367L386 369L386 367L397 366L399 362L401 356L407 350L409 344L411 344L412 340L420 340L424 338L425 336ZM-106 220L-119 211L-128 209L-130 203L-130 199L-135 197L-136 191L-142 187L-142 184L-139 180L-140 176L-147 172L-155 160L-163 154L-165 150L-174 156L-182 149L-186 147L-191 147L-191 75L-182 77L-175 81L-170 82L-166 79L-160 76L-153 77L-146 73L-139 71L-135 75L-132 73L-131 69L-128 70L-120 77L-114 72L-113 78L-107 77L-106 74L-100 75L-93 78L-82 81L-75 82L-71 82L-65 86L-71 90L-63 92L-50 91L-46 89L-41 94L-36 90L-41 87L-38 84L-29 83L-20 89L-15 88L-7 92L7 91L7 86L11 85L18 87L18 95L21 89L25 89L27 81L22 76L16 72L17 63L22 57L28 58L33 62L39 71L35 75L44 77L44 85L50 79L56 84L54 90L59 96L64 90L67 83L67 74L81 76L87 80L87 84L84 88L87 92L87 96L77 102L71 103L66 101L59 114L54 119L47 120L43 123L43 128L38 129L32 134L27 142L25 148L25 156L32 157L36 169L42 167L51 170L59 176L70 180L82 181L82 187L83 193L87 200L93 206L97 204L100 198L97 188L94 184L101 181L107 177L109 172L109 168L106 162L100 157L105 150L102 132L105 131L118 133L122 131L132 138L133 141L141 141L143 156L147 157L150 161L157 157L165 146L180 169L178 174L188 181L195 183L198 185L200 190L204 191L206 193L206 200L199 205L192 207L186 212L178 213L168 212L156 212L152 217L146 219L134 233L138 232L146 224L156 219L163 218L167 221L162 225L165 236L171 239L179 238L184 231L184 236L187 238L181 242L171 245L161 251L158 251L157 246L165 241L153 242L150 239L150 231L148 229L145 230L143 229L140 233L136 240L133 242L133 243L117 243L108 251L99 251L97 252L98 255L82 262L78 260L83 251L81 241L76 238L77 237L75 237L74 234L72 235L70 232L54 224L50 225L43 224L39 225L26 222L25 221L24 217L23 217L23 220L-106 220ZM1568 220L1555 211L1547 209L1544 203L1545 199L1539 197L1538 191L1532 187L1532 184L1535 180L1535 176L1527 172L1519 160L1512 154L1509 150L1500 156L1493 149L1488 147L1484 147L1484 75L1492 77L1500 81L1505 82L1509 79L1514 76L1521 77L1528 73L1536 71L1539 75L1543 73L1544 69L1547 70L1555 77L1561 72L1561 78L1567 77L1569 74L1575 75L1582 78L1593 81L1599 82L1604 82L1610 86L1603 90L1612 92L1624 91L1628 89L1633 94L1638 90L1633 87L1636 84L1646 83L1654 89L1659 88L1668 92L1682 91L1681 86L1685 85L1692 87L1692 95L1695 89L1699 89L1701 81L1696 76L1691 72L1691 63L1697 57L1703 58L1708 62L1714 71L1710 75L1718 77L1718 85L1725 79L1730 84L1729 90L1733 96L1738 90L1741 83L1742 74L1755 76L1761 80L1762 84L1758 88L1762 92L1761 96L1752 102L1745 103L1741 101L1733 114L1728 119L1721 120L1718 123L1717 128L1712 129L1706 134L1701 142L1699 148L1699 156L1706 157L1710 169L1717 167L1725 170L1733 176L1744 180L1757 181L1756 187L1758 193L1761 200L1768 206L1771 204L1774 198L1772 188L1768 184L1776 181L1781 177L1784 172L1783 168L1780 162L1774 157L1780 150L1776 132L1779 131L1792 133L1796 131L1806 138L1808 141L1816 141L1817 156L1822 157L1825 161L1832 157L1839 146L1854 169L1852 174L1862 181L1870 183L1873 185L1875 190L1878 191L1880 193L1881 200L1874 205L1866 207L1860 212L1852 213L1842 212L1831 212L1827 217L1821 219L1809 233L1813 232L1820 224L1830 219L1837 218L1841 221L1837 225L1840 236L1846 239L1853 238L1858 231L1858 236L1861 238L1856 242L1845 245L1836 251L1832 251L1832 246L1840 241L1827 242L1824 239L1824 231L1822 229L1819 230L1817 229L1814 233L1811 240L1807 242L1807 243L1791 243L1782 251L1773 251L1771 252L1772 255L1756 262L1753 260L1758 251L1756 241L1751 238L1751 237L1749 237L1748 234L1746 235L1745 232L1728 224L1724 225L1717 224L1713 225L1701 222L1699 221L1699 217L1697 217L1697 220L1568 220ZM74 131L78 128L84 128L84 130L79 133L75 133L74 131ZM94 49L89 44L89 41L102 41L110 46L110 49L94 49ZM92 134L93 132L95 132L96 134L95 137L93 137L92 134ZM30 29L27 33L20 32L15 30L17 25L24 23L28 26L30 29ZM29 5L18 4L17 2L26 2L29 4L29 5ZM15 0L21 0L13 2L6 0L15 0ZM55 35L35 31L33 21L28 17L19 15L13 12L15 8L25 9L30 12L39 12L43 15L42 19L50 23L63 24L71 22L88 22L93 26L94 30L91 32L84 34L78 33L55 35ZM207 206L201 215L204 213L207 214L205 216L210 218L212 216L216 218L215 223L218 222L220 228L218 234L213 233L214 228L213 227L207 232L205 232L208 229L203 228L189 228L189 226L192 224L190 222L194 219L198 209L201 206L205 204L207 204L207 206ZM75 112L85 117L86 120L89 120L93 122L88 124L81 123L79 119L67 127L66 123L59 123L63 120L66 107L69 108L70 111L72 110L75 112ZM99 53L103 49L113 54L120 58L120 62L129 60L134 65L145 69L149 72L154 80L145 83L156 89L163 90L170 98L177 98L176 104L168 113L162 109L155 102L149 103L148 107L161 117L164 125L163 130L145 122L157 133L157 135L145 132L135 128L129 124L131 122L117 115L117 117L104 118L100 116L103 110L121 109L120 106L121 103L127 95L124 89L117 85L108 82L111 80L106 75L102 74L98 72L95 74L87 75L70 73L53 70L49 67L54 63L47 63L46 54L49 46L54 42L66 40L63 46L66 51L70 44L82 40L90 50L90 55L99 53ZM26 37L35 37L44 39L37 47L32 49L27 56L21 55L18 48L19 43L21 39L26 37ZM-26 0L0 0L2 1L-26 0ZM1649 0L1674 0L1676 1L1649 0ZM-36 21L-32 19L-27 20L-27 24L-29 29L-45 30L-57 34L-64 35L-65 32L-55 27L-76 29L-82 27L-76 18L-72 15L-59 18L-50 24L-42 25L-49 15L-45 12L-40 13L-36 21ZM1638 21L1642 19L1647 20L1648 24L1645 29L1629 30L1618 34L1610 35L1610 32L1620 27L1599 29L1592 27L1598 18L1603 15L1616 18L1624 24L1632 25L1626 15L1630 12L1635 13L1638 21ZM-30 46L-25 50L-21 65L-5 73L-5 76L-13 77L-10 80L-11 83L-28 80L-42 83L-62 85L-64 81L-71 79L-75 80L-81 73L-70 71L-64 71L-58 70L-67 68L-83 68L-86 65L-75 62L-82 62L-90 60L-83 50L-71 44L-66 46L-68 50L-58 48L-51 52L-46 48L-42 50L-38 59L-36 55L-39 46L-35 45L-30 46ZM1644 46L1649 50L1654 65L1670 73L1669 76L1662 77L1665 80L1663 83L1647 80L1633 83L1612 85L1610 81L1604 79L1600 80L1594 73L1604 71L1611 71L1617 70L1608 68L1591 68L1589 65L1599 62L1592 62L1584 60L1591 50L1604 44L1609 46L1606 50L1617 48L1623 52L1628 48L1633 50L1636 59L1639 55L1635 46L1639 45L1644 46ZM-2 50L-7 44L-2 40L4 41L12 40L13 43L9 47L16 51L15 59L8 62L3 61L0 58L-12 51L-12 49L-2 50ZM1672 50L1667 44L1673 40L1678 41L1687 40L1688 43L1683 47L1691 51L1690 59L1682 62L1678 61L1674 58L1663 51L1663 49L1672 50ZM-31 42L-24 41L-21 43L-25 49L-32 43L-31 42ZM1644 42L1650 41L1653 43L1649 49L1642 43L1644 42ZM7 13L11 17L11 22L9 29L1 30L-4 28L-4 23L-12 24L-12 16L-7 17L0 13L7 14L7 13ZM1681 13L1685 17L1685 22L1683 29L1675 30L1670 28L1670 23L1663 24L1662 16L1667 17L1675 13L1681 14L1681 13ZM19 0L66 0L15 0L19 0ZM39 0L177 0L107 0L114 0L103 1L101 5L94 8L95 10L103 10L103 12L90 18L78 15L65 17L49 15L48 10L57 8L55 1L57 0L70 5L64 0L56 0L84 0L39 0ZM115 94L112 96L107 96L106 93L108 88L112 87L116 89L115 94ZM17 77L20 80L17 83L11 81L7 82L1 78L8 72L17 77ZM165 214L173 215L178 218L178 219L169 217L165 214ZM167 231L169 234L177 235L173 238L167 235L166 233L167 231ZM-106 220L23 220L23 217L24 217L25 221L26 222L39 225L43 224L50 225L54 224L70 232L72 235L74 234L75 237L77 237L76 238L81 241L83 251L79 260L81 262L98 255L97 252L99 251L108 251L117 243L133 243L133 242L136 240L140 233L143 229L145 230L148 229L150 231L150 239L154 244L139 251L136 255L136 258L137 261L139 261L139 259L140 261L140 262L122 266L129 265L130 266L124 268L121 267L120 269L121 269L120 273L117 277L114 274L116 280L112 286L113 282L111 280L110 276L109 278L110 282L107 281L110 283L110 288L112 288L113 295L110 299L105 301L102 304L97 306L97 308L92 311L87 317L86 320L87 324L93 340L91 348L88 348L85 345L80 335L81 331L76 324L74 324L69 326L63 322L48 323L50 328L49 328L48 327L42 328L39 326L35 326L32 325L25 327L13 335L12 341L13 345L11 345L5 342L2 336L-4 327L-8 325L-12 325L-14 329L-18 328L-21 326L-23 321L-30 315L-38 315L-38 317L-51 317L-69 311L-68 310L-80 311L-80 308L-86 305L-86 303L-96 300L-96 297L-101 292L-105 283L-110 277L-111 272L-113 269L-113 260L-114 256L-112 251L-111 240L-112 232L-115 225L-114 223L-108 225L-105 231L-104 229L-106 220ZM1568 220L1697 220L1697 217L1699 217L1699 221L1701 222L1713 225L1717 224L1724 225L1728 224L1745 232L1746 235L1748 234L1749 237L1751 237L1751 238L1756 241L1758 251L1753 260L1755 262L1772 255L1771 252L1773 251L1782 251L1791 243L1807 243L1807 242L1811 240L1814 233L1817 229L1819 230L1822 229L1824 231L1824 239L1828 244L1813 251L1810 255L1810 258L1812 261L1814 261L1813 259L1814 261L1814 262L1797 266L1804 265L1805 266L1798 268L1796 267L1794 269L1796 269L1795 273L1791 277L1788 274L1790 280L1786 286L1787 282L1785 280L1784 276L1784 278L1785 282L1781 281L1785 283L1785 288L1786 288L1787 295L1784 299L1780 301L1776 304L1772 306L1771 308L1766 311L1761 317L1761 320L1761 324L1767 340L1766 348L1762 348L1759 345L1754 335L1755 331L1750 324L1748 324L1744 326L1738 322L1723 323L1725 328L1724 328L1722 327L1717 328L1713 326L1709 326L1706 325L1699 327L1688 335L1687 341L1688 345L1686 345L1679 342L1677 336L1670 327L1667 325L1663 325L1660 329L1656 328L1654 326L1651 321L1644 315L1636 315L1636 317L1623 317L1606 311L1606 310L1595 311L1594 308L1589 305L1588 303L1578 300L1578 297L1573 292L1570 283L1564 277L1563 272L1561 269L1562 260L1560 256L1562 251L1563 240L1562 232L1560 225L1560 223L1567 225L1569 231L1571 229L1568 220ZM1121 480L1138 486L1143 490L1144 493L1152 496L1153 499L1149 499L1150 502L1154 505L1157 510L1160 510L1159 512L1163 513L1162 514L1167 516L1166 517L1163 518L1162 516L1153 515L1147 510L1144 505L1138 503L1132 506L1132 510L1129 511L1121 510L1121 480ZM1175 485L1177 486L1177 489L1176 490L1174 485L1166 481L1167 479L1175 485ZM1169 495L1161 497L1155 495L1155 493L1162 493L1163 491L1164 494L1167 493L1170 490L1170 487L1173 487L1174 490L1172 493L1170 494L1169 495ZM1185 493L1191 498L1190 500L1189 500L1187 498L1184 492L1184 491L1185 493ZM1121 480L1121 510L1117 506L1112 506L1111 507L1105 507L1107 503L1110 502L1107 493L1098 489L1094 489L1087 484L1085 487L1084 487L1083 483L1079 481L1087 479L1087 478L1080 478L1078 475L1074 474L1072 472L1078 471L1081 470L1088 471L1090 481L1095 483L1099 479L1104 476L1109 476L1121 480ZM1046 509L1047 512L1044 515L1040 516L1040 514L1042 511L1046 509ZM1089 500L1089 496L1091 493L1092 497L1089 500ZM1013 449L1011 453L1014 457L1013 459L1019 464L1013 464L1012 467L1012 472L1007 475L1005 486L1005 485L999 487L998 484L992 482L986 484L985 482L978 481L977 475L975 474L973 470L972 466L972 462L975 458L976 462L979 464L985 464L990 461L994 462L998 461L1004 448L1013 449ZM1067 481L1072 482L1074 486L1070 484L1060 484L1061 481L1067 481ZM1055 485L1052 485L1051 483L1056 482L1057 484L1055 485ZM1060 458L1060 460L1063 461L1064 463L1063 467L1061 466L1060 469L1062 471L1061 472L1059 469L1058 463L1060 458ZM1037 464L1042 464L1047 460L1048 461L1044 466L1040 467L1036 466L1024 467L1023 470L1028 474L1030 472L1039 471L1038 473L1036 472L1034 475L1030 477L1035 483L1034 484L1038 490L1038 493L1035 494L1034 492L1036 489L1031 490L1030 489L1031 487L1027 485L1028 480L1025 481L1025 494L1022 494L1020 493L1022 489L1021 484L1019 484L1018 481L1019 478L1022 467L1027 462L1037 464ZM1025 516L1018 512L1023 511L1027 514L1027 516L1025 516ZM1029 508L1037 506L1036 508L1029 509L1023 509L1023 507L1027 506L1029 508ZM1015 507L1018 506L1019 508L1008 510L1010 507L1012 507L1013 506L1015 507ZM970 498L970 499L979 500L980 498L989 500L991 503L998 504L1003 507L998 509L993 507L984 507L971 503L969 504L960 502L959 500L955 500L958 495L964 496L970 498ZM951 473L953 479L956 479L959 482L957 495L952 495L942 487L937 481L931 471L927 467L924 459L920 456L917 452L909 445L908 442L919 443L933 458L938 458L942 461L945 465L948 467L946 471L951 473ZM146 722L163 722L146 722ZM197 613L193 635L199 639L198 643L201 645L201 648L197 655L190 657L180 659L175 658L176 668L173 670L169 671L164 669L162 670L163 676L166 677L169 676L170 679L166 680L162 684L160 693L156 693L152 696L151 700L155 704L160 705L158 711L153 714L150 721L124 722L124 718L127 715L129 711L128 708L131 703L132 696L132 692L134 691L133 689L131 688L133 686L131 683L130 677L131 676L131 669L133 658L136 657L134 646L138 643L138 638L140 633L140 628L139 628L137 619L140 613L139 608L141 604L147 596L146 594L147 592L147 584L152 582L154 577L153 575L157 571L163 572L166 576L168 572L173 572L182 581L186 582L196 587L197 590L192 597L202 599L206 598L210 595L211 590L213 589L216 592L216 596L209 601L197 613ZM146 722L154 722L118 722L146 722ZM141 550L144 554L144 557L147 559L145 564L150 576L153 575L154 577L152 582L147 584L147 592L146 594L147 596L141 604L139 608L140 613L137 619L139 628L140 628L140 633L138 638L138 643L134 646L136 657L133 658L131 669L131 676L130 677L131 683L133 686L131 688L133 689L134 691L132 692L132 696L131 703L128 708L129 711L127 715L124 718L124 722L146 722L114 722L113 714L115 708L120 704L113 702L118 697L119 687L124 689L127 678L124 676L122 683L119 682L122 664L125 660L123 649L125 649L133 624L132 616L133 612L133 606L135 600L139 569L138 554L140 553L141 550ZM602 489L603 498L606 501L608 507L599 508L597 511L598 513L597 523L602 526L603 525L603 530L600 530L596 525L592 525L591 522L589 524L585 523L583 521L578 520L578 519L568 520L568 514L567 512L566 502L561 502L561 500L559 500L555 501L554 505L551 504L546 505L541 495L527 495L522 496L522 495L523 494L524 491L527 491L528 489L531 489L533 491L540 484L539 480L541 476L547 470L551 448L556 444L562 448L569 449L571 446L573 446L579 444L582 445L584 443L592 443L595 447L597 448L603 446L609 451L608 457L610 458L604 465L603 474L601 475L600 481L601 483L602 489ZM659 476L656 472L656 455L661 448L664 448L668 445L674 445L693 424L693 414L703 412L703 418L700 425L691 443L682 455L666 466L659 476ZM579 429L574 426L575 421L572 418L569 409L567 409L569 405L568 403L570 402L569 401L572 394L576 395L576 374L581 374L581 364L637 364L639 380L644 383L641 386L637 388L634 404L627 417L624 418L623 427L622 420L620 418L620 411L617 411L617 412L614 412L616 416L611 422L609 422L605 420L600 424L591 423L590 424L585 419L582 420L579 426L576 428L579 429ZM576 376L576 395L572 394L569 401L570 402L568 403L569 405L567 409L569 409L571 416L566 418L563 424L558 426L553 426L553 428L549 431L536 433L537 432L535 427L530 423L531 421L537 421L535 417L534 411L533 408L533 405L530 405L530 402L528 401L530 394L536 390L536 384L539 372L535 367L534 360L539 357L576 376ZM132 375L132 379L130 380L132 383L123 382L121 383L119 382L119 380L127 381L129 380L127 378L127 376L124 375L125 374L132 375ZM132 383L130 380L132 379L132 374L140 375L141 377L143 377L143 378L147 380L146 382L140 381L137 382L136 381L133 385L132 383ZM98 340L103 340L103 341L98 342L98 340ZM103 339L107 341L106 345L103 339ZM101 348L103 348L104 355L103 355L100 351L101 348ZM180 722L197 722L180 722ZM536 0L565 0L554 0L547 4L545 12L539 12L529 6L533 3L526 0L514 0L536 0ZM610 77L598 81L600 75L594 72L587 74L585 80L580 84L575 82L569 82L564 78L561 80L558 81L558 86L549 85L548 89L543 89L528 114L530 117L528 120L524 120L521 126L521 136L524 140L522 148L516 157L513 152L504 160L498 162L491 158L488 135L493 130L505 124L514 116L534 91L554 74L565 71L572 71L579 64L588 65L596 63L611 69L605 71L610 77ZM593 0L546 0L593 0ZM580 1L570 6L562 3L565 1L562 0L573 0L580 1ZM248 0L408 0L372 0L383 0L373 0L374 4L379 10L372 10L364 14L373 19L374 27L369 28L375 35L365 36L370 40L369 43L355 44L361 50L361 54L352 51L350 53L356 55L362 61L364 67L356 69L346 61L348 67L343 71L361 72L336 85L317 88L312 91L306 100L296 105L280 109L276 114L276 119L274 124L266 130L268 135L263 148L257 149L250 143L241 143L236 139L233 132L225 123L223 118L222 111L216 104L217 98L214 96L219 86L226 83L228 80L229 74L216 79L211 76L210 71L212 66L217 66L226 68L214 60L209 61L205 59L211 51L198 32L193 28L193 24L180 19L170 18L146 19L133 10L145 7L155 6L135 4L124 0L258 0L248 0ZM786 714L789 716L793 716L792 720L785 721L786 714ZM1046 509L1047 508L1051 507L1057 507L1047 512L1046 509ZM600 606L602 608L599 612L597 613L596 614L594 615L591 611L596 606L598 605L600 606ZM-80 311L-68 310L-69 311L-51 317L-38 317L-38 315L-30 315L-23 321L-21 326L-18 328L-14 329L-12 325L-8 325L-4 327L2 336L5 342L13 345L11 353L10 362L13 370L19 379L24 380L26 382L40 379L43 377L45 369L53 366L60 366L61 367L61 369L58 375L58 376L57 382L55 381L54 381L52 384L42 384L42 387L40 387L44 391L44 392L38 392L36 396L36 400L28 393L25 392L16 394L-4 387L-9 384L-16 382L-23 377L-26 374L-27 371L-25 371L-24 367L-28 360L-39 348L-43 346L-44 345L-43 342L-48 338L-49 335L-52 334L-57 329L-61 320L-61 318L-69 315L-69 317L-68 323L-54 341L-50 353L-47 353L-44 358L-47 360L-48 357L-57 350L-57 344L-67 338L-70 335L-68 335L-66 333L-66 331L-72 326L-80 311ZM1595 311L1606 310L1606 311L1623 317L1636 317L1636 315L1644 315L1651 321L1654 326L1656 328L1660 329L1663 325L1667 325L1670 327L1677 336L1679 342L1688 345L1685 353L1684 362L1687 370L1693 379L1698 380L1700 382L1714 379L1717 377L1720 369L1728 366L1735 366L1736 367L1736 369L1732 375L1733 376L1731 382L1730 381L1728 381L1726 384L1716 384L1716 387L1714 387L1719 391L1719 392L1713 392L1711 396L1711 400L1703 393L1699 392L1690 394L1671 387L1665 384L1658 382L1651 377L1649 374L1648 371L1649 371L1650 367L1646 360L1635 348L1631 346L1630 345L1631 342L1626 338L1625 335L1622 334L1618 329L1613 320L1613 318L1606 315L1605 317L1606 323L1620 341L1625 353L1627 353L1631 358L1628 360L1627 357L1618 350L1617 344L1607 338L1604 335L1607 335L1608 333L1609 331L1602 326L1595 311ZM197 613L200 612L215 622L218 626L216 628L217 631L215 634L210 637L206 636L204 637L199 635L196 635L193 632L197 613ZM142 519L148 519L155 514L161 513L161 522L166 526L171 527L178 531L184 532L185 538L184 539L185 544L194 544L194 549L197 550L198 553L196 559L196 562L195 563L195 561L190 559L178 560L176 565L174 573L173 572L168 572L166 576L163 572L157 571L153 575L150 576L145 564L147 559L144 557L144 554L141 550L144 545L142 541L143 540L143 538L144 536L145 528L146 527L142 519ZM140 488L136 488L126 492L125 496L125 499L122 500L122 502L121 503L126 510L125 512L128 512L129 515L133 515L137 512L137 519L142 519L146 527L145 528L144 536L143 538L143 540L142 541L144 545L140 553L138 554L133 551L133 549L112 536L110 533L110 531L94 501L87 496L89 494L86 490L88 487L92 484L92 486L91 487L91 488L95 489L97 491L99 489L103 482L109 480L114 475L115 472L115 469L116 468L123 474L125 479L136 478L139 480L136 485L140 488ZM154 462L153 463L151 458L149 460L140 460L140 463L143 463L143 465L139 465L139 469L142 470L142 473L140 488L136 485L139 480L136 478L125 479L123 474L116 468L115 469L110 466L105 466L104 464L98 461L98 460L99 460L100 456L103 455L106 450L105 449L106 446L105 442L105 441L105 437L103 434L103 432L105 432L106 431L105 428L108 428L113 424L114 418L117 416L124 415L131 410L133 410L134 411L133 413L130 414L126 419L124 425L127 425L128 429L128 433L130 435L139 435L142 439L150 439L152 439L150 447L152 452L150 455L153 457L154 462ZM105 427L106 431L105 432L103 432L103 434L100 430L101 429L97 426L91 429L91 430L93 433L89 434L88 431L86 432L85 430L80 429L80 430L80 426L79 424L81 423L83 426L85 426L86 427L95 423L98 423L102 425L105 427ZM81 423L79 424L80 426L79 429L77 428L76 426L71 423L70 421L69 423L67 421L67 418L65 417L67 415L75 418L76 417L81 423ZM76 417L75 418L71 416L66 416L57 407L62 406L62 403L64 403L65 402L66 403L70 398L72 399L78 398L77 404L77 410L75 415L76 417ZM78 398L72 399L70 398L66 403L65 402L64 403L62 403L62 406L59 407L57 405L56 403L53 403L50 400L50 397L56 393L70 393L78 398ZM50 400L53 403L57 403L56 406L46 403L50 400ZM36 400L36 396L38 392L44 392L44 391L40 387L42 387L42 384L51 384L50 393L55 394L50 397L50 400L46 403L41 403L36 400ZM51 384L51 383L52 384L54 381L55 381L54 390L51 393L50 393L51 384ZM183 444L183 445L182 447L172 450L164 449L166 450L166 456L170 457L170 458L160 464L157 464L154 462L153 457L150 455L152 452L150 447L152 439L150 439L142 439L139 435L130 435L128 433L128 429L127 425L124 425L126 419L130 414L133 413L133 414L130 414L132 417L132 419L130 422L132 425L134 425L135 422L133 420L133 417L139 415L138 412L140 411L141 414L145 414L148 417L148 419L157 418L160 420L163 421L166 419L166 418L177 418L173 419L175 421L179 422L182 424L183 428L187 429L183 432L183 433L185 435L181 437L181 439L179 440L183 444ZM202 459L198 459L193 462L191 462L188 459L186 455L188 449L186 446L186 444L185 443L183 444L179 440L181 439L181 437L185 435L183 433L183 432L187 429L193 434L193 436L195 436L199 440L199 444L196 445L195 449L197 452L199 452L202 459ZM212 457L205 456L205 459L202 459L199 452L197 452L195 449L196 445L199 444L199 440L205 441L209 440L214 441L212 445L212 448L214 451L212 457ZM225 448L219 458L212 457L214 451L212 448L212 445L214 441L219 443L224 447L225 448ZM494 217L496 218L503 220L500 224L500 228L499 229L496 228L497 230L493 233L493 236L495 235L497 237L498 241L497 243L498 247L500 248L500 251L495 254L486 252L480 254L479 257L474 258L468 256L467 257L458 254L456 252L459 249L460 237L451 228L444 226L444 222L450 220L458 222L456 215L461 218L471 213L473 208L477 207L477 209L480 209L485 214L487 214L494 217ZM506 257L509 254L510 259L508 264L506 262L505 259L506 257ZM115 469L115 472L114 475L109 480L103 482L99 489L97 491L95 489L91 488L91 487L92 486L92 484L94 480L93 478L91 480L89 478L89 477L89 473L90 472L93 466L93 464L98 461L104 464L105 466L110 466L115 469ZM157 381L160 382L159 383L153 383L153 381L157 381ZM104 381L107 381L111 384L106 385L101 382L101 381L104 381ZM82 358L90 358L96 362L101 361L109 368L113 369L113 370L117 370L120 372L120 373L116 374L103 374L107 372L102 370L99 366L96 366L83 362L85 361L80 360L74 364L70 364L75 360L82 358ZM610 573L602 572L599 570L595 569L594 564L592 564L587 559L583 551L591 552L598 545L599 545L600 543L606 541L606 542L610 542L618 546L617 564L610 573ZM602 572L591 580L588 585L586 585L584 589L578 590L574 588L566 595L562 596L561 594L562 591L558 585L558 571L562 571L562 554L573 552L575 554L578 552L583 551L587 559L592 564L594 564L595 569L599 570L602 572ZM558 585L558 604L551 607L546 605L543 602L541 604L536 597L532 581L531 572L527 566L524 557L520 553L520 549L528 548L531 550L550 549L553 551L565 552L577 549L582 550L575 554L573 552L562 554L562 571L558 571L558 585ZM387 404L385 400L383 399L385 398L390 391L397 390L403 393L409 399L410 405L411 406L412 410L393 409L388 410L387 406L391 406L395 405L399 406L401 405L400 403L397 404L395 403L387 404ZM412 410L411 406L410 405L409 399L410 398L411 396L416 397L420 396L421 395L439 395L440 392L435 349L442 349L474 371L475 373L480 375L480 378L485 378L485 389L482 392L482 395L472 396L470 398L460 398L456 400L451 404L449 405L446 405L445 409L441 413L440 419L437 421L436 419L433 420L428 420L426 419L427 417L425 417L426 415L423 410L418 412L414 411L412 411L412 410ZM386 369L387 367L405 367L404 360L405 358L410 357L409 344L425 345L425 337L442 349L435 349L440 392L439 395L421 395L420 396L416 397L411 396L410 398L409 399L403 393L397 390L390 391L389 392L388 390L390 383L389 373L386 369ZM478 439L474 439L473 436L473 425L472 422L469 419L469 416L471 416L472 414L478 411L482 413L483 418L482 421L479 425L478 428L478 439ZM534 360L535 367L539 372L536 384L536 390L530 394L528 401L530 402L530 405L533 405L531 409L526 404L522 407L516 405L507 408L501 405L497 406L490 403L484 404L482 409L482 413L478 411L475 412L475 409L470 408L470 405L467 402L467 398L470 398L472 396L482 395L482 392L485 389L485 378L492 375L505 366L521 357L528 359L531 361L534 360ZM478 439L478 428L479 425L482 421L482 409L485 403L490 403L497 406L501 405L507 408L516 405L522 407L526 404L533 411L532 414L528 417L520 435L517 437L514 435L512 435L508 438L505 446L496 448L493 448L485 439L478 439ZM533 408L534 411L535 417L537 421L531 421L530 423L535 427L537 432L533 439L532 446L539 454L539 460L532 457L510 457L511 453L505 447L506 442L508 438L512 435L514 435L517 437L520 435L528 417L532 414L533 411L531 409L531 408L533 408ZM469 416L469 419L472 422L473 425L473 436L474 439L470 440L468 436L468 429L467 427L467 420L465 418L465 416L469 416ZM465 416L468 429L468 436L470 440L456 446L452 445L452 443L450 439L453 429L451 417L465 416ZM428 420L433 420L436 419L437 421L440 419L445 423L449 422L452 423L453 429L450 439L452 443L452 445L443 444L429 447L430 441L425 438L427 429L429 428L426 422L428 420ZM401 409L407 410L412 410L412 411L414 411L418 412L423 410L426 415L425 417L427 417L426 419L428 420L426 422L429 428L427 429L427 432L425 432L424 434L422 434L420 428L416 429L416 425L413 421L407 422L404 426L395 416L397 414L401 413L401 409ZM388 410L393 409L401 409L401 413L397 414L395 416L390 414L388 410ZM426 432L425 438L430 441L429 447L423 445L412 436L418 429L420 428L422 434L426 432ZM404 426L407 422L413 421L416 425L416 429L418 429L412 436L405 431L404 426ZM440 419L441 413L445 409L445 406L446 405L449 405L451 404L456 400L460 398L463 397L467 398L467 402L470 405L470 408L475 409L474 413L472 414L471 416L469 416L451 417L452 423L449 422L445 423L440 419ZM592 443L584 443L580 445L579 444L573 446L571 446L569 449L562 448L556 444L551 448L551 451L545 450L540 457L539 454L532 446L532 442L533 439L536 433L549 431L553 428L553 426L558 426L563 424L566 418L571 416L575 421L574 426L582 431L582 433L587 437L588 440L592 443ZM551 451L548 460L547 470L541 476L539 480L540 484L533 491L531 489L528 489L527 491L524 488L521 491L517 486L520 484L519 481L523 479L524 477L526 479L530 479L532 474L532 470L530 468L532 462L530 461L527 462L526 459L526 457L532 457L539 460L542 453L545 450L551 451ZM518 457L525 457L527 462L530 461L532 462L530 468L532 470L532 474L530 479L526 479L524 477L523 479L519 481L520 484L517 486L509 478L506 473L509 463L518 463L518 457ZM510 457L518 457L518 463L509 463L508 462L510 457ZM608 507L617 511L620 513L621 517L619 522L620 526L617 532L620 533L605 537L606 541L600 543L599 545L598 545L591 552L583 551L580 549L573 550L567 543L567 528L577 528L576 519L578 519L578 520L583 521L585 523L589 524L591 522L592 525L596 525L600 530L603 530L603 525L602 526L597 523L598 513L597 511L600 507L608 507ZM617 511L622 512L625 515L626 522L625 525L626 531L629 533L631 536L631 542L629 543L628 547L625 544L625 536L622 535L617 532L620 526L619 522L621 517L620 513L617 511ZM626 522L635 523L639 522L641 520L649 519L653 516L655 537L652 543L649 546L639 550L627 561L627 564L630 572L631 572L630 582L619 588L617 590L617 592L618 593L618 595L614 595L613 589L614 583L610 573L617 564L618 546L610 542L606 542L605 537L620 533L622 535L625 536L625 544L628 547L629 543L631 542L631 536L629 533L626 531L625 525L626 522ZM614 595L613 597L611 598L608 595L610 590L613 591L614 595ZM526 490L522 495L521 491L524 488L526 490ZM522 496L527 495L541 495L546 505L551 504L554 505L555 501L559 500L561 500L561 502L566 502L567 512L568 514L568 520L574 519L576 519L577 520L577 528L567 528L567 543L573 550L565 552L553 551L550 549L531 550L528 548L520 549L519 546L522 535L524 529L529 524L529 521L529 518L525 511L527 508L522 496ZM607 479L608 483L603 489L602 489L601 483L600 481L603 481L604 479L607 479ZM631 310L630 312L629 311L628 314L629 315L628 317L630 316L630 318L628 326L624 318L628 308L632 307L631 310ZM632 307L628 308L633 300L635 300L635 302L633 304L632 307ZM630 316L628 317L629 315L628 314L629 311L630 312L630 316ZM387 404L395 403L397 404L400 403L401 405L399 406L395 405L391 406L387 406L387 404ZM509 322L507 313L501 307L500 303L503 300L504 288L509 286L513 286L512 289L516 287L517 288L514 291L514 293L516 294L515 299L512 302L513 304L516 305L517 307L519 308L518 312L511 317L511 321L509 322ZM425 337L425 330L432 326L441 324L443 321L448 319L448 316L451 315L453 313L459 312L460 310L459 309L455 297L459 294L465 293L472 290L488 288L490 289L494 287L504 288L503 300L500 303L501 307L507 313L511 327L510 342L508 344L513 352L515 351L519 354L521 357L505 366L492 375L480 378L480 375L475 373L474 371L425 337ZM630 312L631 310L636 312L646 307L647 313L637 316L642 321L640 324L636 325L633 328L628 326L630 312ZM701 350L701 347L704 344L705 345L705 348L704 351L701 350ZM688 324L690 331L687 331L686 329L682 329L685 324L688 324ZM647 313L646 307L656 301L658 295L657 291L664 285L670 286L671 287L673 287L676 293L679 294L680 298L677 299L676 303L680 308L685 311L688 315L687 319L688 319L688 322L691 324L685 324L682 329L673 328L660 318L653 314L647 313ZM722 360L723 354L725 353L725 349L727 349L732 355L738 356L743 362L737 371L735 371L734 372L733 379L728 380L727 384L724 384L722 385L722 387L720 388L717 388L712 390L707 378L721 374L724 364L722 360ZM727 346L726 344L727 342L727 346ZM942 411L941 405L944 401L950 400L958 403L960 400L965 401L966 404L965 410L957 414L959 417L954 417L950 419L946 418L942 411ZM955 401L950 400L944 401L941 405L942 411L938 409L934 409L935 405L931 405L930 410L926 421L927 425L930 425L932 433L940 439L939 441L936 441L935 439L931 437L931 438L923 429L923 431L922 429L924 421L928 412L926 403L922 397L923 396L925 392L918 381L920 380L922 375L925 375L931 371L933 373L933 376L936 376L935 386L940 383L944 383L945 382L949 382L952 386L952 391L956 395L956 399L955 401ZM965 401L960 400L958 403L955 401L956 399L956 395L952 391L952 386L949 382L945 382L944 383L940 383L935 386L936 376L933 376L933 373L931 371L936 367L936 368L939 368L938 362L940 362L945 370L951 370L953 374L948 377L954 380L964 393L965 397L965 401ZM931 371L925 375L922 375L920 380L918 381L925 392L923 396L922 397L926 403L928 412L924 421L923 418L924 414L923 412L923 406L921 404L919 392L917 388L909 394L903 393L905 387L904 382L900 377L901 375L898 374L895 370L894 366L896 367L896 364L898 362L899 354L903 355L908 344L908 341L914 338L917 339L917 336L918 335L918 333L921 332L922 335L924 337L924 344L920 349L919 354L924 354L925 358L928 359L927 363L932 366L936 365L936 367L931 371ZM950 419L954 417L959 417L957 414L965 410L965 397L964 393L954 380L948 377L953 374L951 370L945 370L940 362L943 360L951 360L955 357L957 359L962 360L961 363L963 365L968 366L961 370L958 375L957 378L964 389L969 392L972 396L974 405L973 413L954 428L953 425L954 422L950 419ZM1073 258L1073 259L1072 259L1068 262L1068 266L1058 273L1058 275L1062 279L1061 280L1056 281L1054 283L1050 282L1048 284L1045 281L1048 278L1048 275L1043 272L1047 268L1052 265L1055 261L1057 263L1061 263L1061 260L1068 258L1070 255L1073 258ZM1052 283L1054 283L1056 281L1061 280L1062 279L1067 289L1067 295L1066 298L1058 301L1053 301L1054 294L1052 289L1055 288L1052 283ZM873 218L878 217L894 209L898 211L903 211L906 214L917 215L922 211L920 207L925 201L930 204L940 206L941 210L947 213L958 211L962 212L970 218L980 219L990 216L997 212L1002 215L1008 214L1002 225L1003 227L1006 226L1011 227L1014 225L1022 231L1022 233L1011 233L1008 235L1005 239L997 241L993 244L985 243L983 246L985 250L979 255L973 257L966 257L959 259L953 262L951 261L946 261L939 257L934 256L928 257L913 256L908 247L900 243L888 241L886 239L888 232L885 227L878 225L874 222L873 218ZM896 364L896 367L894 366L895 370L890 360L886 360L886 362L885 365L879 364L877 356L878 353L875 352L879 348L875 345L877 342L883 344L883 348L895 349L893 353L891 354L889 356L892 359L892 356L894 356L896 364ZM892 335L894 337L893 340L883 341L878 339L881 334L884 333L892 335ZM875 335L875 342L871 342L862 340L859 338L853 337L838 330L839 325L844 322L855 327L857 330L864 333L875 335ZM827 295L823 300L817 301L810 299L808 302L811 310L815 312L811 315L811 319L799 335L794 334L788 339L791 342L792 345L795 348L796 352L785 352L782 356L779 354L777 351L774 347L751 349L753 343L760 340L759 338L757 337L757 333L752 331L748 325L756 327L768 327L774 325L774 320L776 317L780 317L780 316L786 316L788 314L787 311L789 308L792 307L790 303L795 303L796 299L798 297L797 292L799 290L815 287L818 289L820 293L827 295ZM775 286L782 287L785 286L787 287L788 284L791 284L794 279L797 281L796 282L798 283L797 287L799 289L806 285L814 285L815 287L799 290L797 292L798 297L796 299L795 303L790 303L792 307L789 308L787 311L788 314L786 316L780 316L780 317L776 317L774 320L774 325L768 327L756 327L748 325L752 320L752 317L749 316L747 309L749 306L747 305L750 295L755 297L758 296L759 294L765 291L766 287L770 286L771 284L775 286ZM781 287L783 281L782 277L779 276L780 273L784 274L788 267L794 266L793 268L793 270L795 270L794 272L789 271L788 274L793 273L799 275L808 274L809 279L810 279L813 280L814 285L806 285L799 289L797 287L798 283L796 282L797 281L794 279L791 284L788 284L787 287L785 286L782 287L781 287ZM795 259L796 256L799 255L807 257L808 254L810 253L817 255L833 255L838 258L838 259L830 262L829 265L823 265L821 269L816 268L813 269L808 272L809 273L808 274L799 275L793 273L788 274L789 271L794 272L795 270L799 270L805 266L799 264L796 265L793 263L797 259L795 259ZM709 261L711 259L717 258L720 260L723 264L731 264L730 261L738 256L744 259L745 263L746 264L751 264L753 265L755 271L764 277L775 282L775 286L771 284L770 286L766 287L765 291L759 294L758 296L755 297L750 295L749 290L746 290L741 285L732 282L723 282L720 285L716 286L715 283L716 277L712 275L713 271L710 271L711 266L716 268L720 266L716 263L715 259L711 261L711 265L709 261ZM691 324L688 322L688 319L687 319L688 315L685 311L680 308L676 303L677 299L680 298L679 294L676 293L671 282L672 281L670 274L673 273L677 277L680 278L689 273L690 275L688 278L691 281L692 280L694 284L698 285L702 288L708 289L715 288L716 286L720 285L723 282L728 281L741 285L746 290L749 290L750 295L747 305L749 306L747 309L749 316L752 317L752 320L748 325L752 331L757 333L757 337L759 338L760 340L753 343L751 349L732 345L730 339L728 338L720 342L714 340L709 336L705 335L698 323L696 324L693 322L691 324ZM631 310L633 304L635 302L635 300L633 300L632 296L636 291L636 288L638 289L643 288L649 289L654 287L662 286L660 290L657 291L658 295L656 301L636 312L631 310ZM681 278L680 278L678 274L676 274L668 270L668 265L674 264L677 267L676 268L679 270L677 272L681 274L681 278ZM516 157L522 148L524 140L521 136L521 126L524 120L528 120L530 117L528 114L543 89L548 89L549 85L558 86L558 81L561 80L575 90L575 102L576 105L568 107L564 112L565 117L548 129L545 139L548 144L552 148L548 156L543 158L542 169L539 175L533 174L531 180L525 180L524 174L516 157ZM596 175L601 176L602 178L604 177L609 179L609 182L608 183L613 189L613 190L617 193L615 194L611 195L613 201L609 201L608 202L607 206L583 202L575 204L573 198L576 197L574 189L579 189L584 187L585 183L589 181L588 178L596 175ZM613 201L622 199L625 203L624 204L624 206L628 206L630 210L635 212L639 211L642 214L651 216L650 221L651 224L650 226L645 227L643 228L643 231L632 234L628 236L628 239L622 236L621 238L613 235L612 233L608 234L603 241L601 240L599 241L596 240L600 236L599 235L605 235L602 229L600 229L601 226L598 225L593 223L581 227L579 226L573 225L571 226L570 225L568 223L570 219L571 219L570 217L574 212L576 211L577 209L575 204L583 202L607 206L608 202L609 201L613 201ZM574 189L576 197L573 198L577 209L576 211L574 212L570 217L571 219L566 217L560 217L557 218L555 216L553 217L551 214L547 213L547 211L544 211L543 212L540 211L541 209L537 209L535 207L533 203L532 197L531 195L532 193L531 190L547 183L552 184L552 186L571 187L573 187L574 189ZM544 225L544 227L541 227L542 229L540 233L536 234L533 235L523 233L522 231L517 232L517 233L509 231L510 228L511 228L513 230L514 228L522 227L525 229L525 224L528 220L532 222L536 219L540 221L542 221L544 222L544 225ZM568 223L570 225L571 226L568 228L563 236L556 236L551 239L547 238L540 232L542 229L541 227L544 227L544 225L548 227L562 222L567 224L568 223ZM589 224L593 223L598 225L601 226L600 229L602 229L605 235L599 235L600 236L596 240L596 233L589 224ZM596 240L603 241L603 243L601 244L599 244L598 251L592 248L584 251L572 250L570 247L571 246L570 245L568 246L565 244L565 242L562 241L559 237L563 236L568 228L573 225L579 226L581 227L589 224L596 233L596 240ZM588 178L589 181L585 183L584 187L579 189L574 189L573 187L571 187L571 183L564 181L563 176L568 174L581 173L581 175L584 175L588 178ZM592 166L594 168L596 175L588 178L584 175L581 175L581 173L568 174L563 176L563 171L565 166L570 164L574 169L577 169L578 164L582 163L588 166L592 166ZM595 152L596 154L593 158L594 164L592 166L588 166L582 163L578 164L579 160L577 161L574 158L574 154L580 152L585 151L595 152ZM531 190L532 193L531 195L532 197L533 203L535 207L532 207L522 212L523 216L528 220L525 224L525 229L522 227L514 228L513 230L505 227L504 228L500 228L500 224L503 220L496 218L494 217L493 202L496 202L497 200L498 191L502 190L503 192L506 189L505 183L508 183L511 182L511 185L516 186L516 189L523 186L531 190ZM570 248L572 250L584 251L592 248L598 251L596 253L594 257L595 260L591 259L587 261L587 264L582 264L579 262L575 264L572 264L572 260L569 258L572 253L570 251L569 249L570 248ZM587 296L587 298L580 298L574 297L575 294L578 296L587 296ZM572 264L575 264L579 262L582 264L587 264L587 261L589 263L586 267L581 266L575 267L579 271L574 271L571 269L570 270L574 276L572 277L577 281L577 284L573 283L574 285L571 286L573 291L570 291L566 288L563 280L559 273L563 267L572 264ZM673 287L671 287L670 286L664 285L649 289L643 288L638 289L636 288L636 291L633 294L632 291L633 289L630 290L627 289L623 292L616 292L613 289L608 289L606 291L603 292L599 289L594 289L591 284L588 281L590 277L587 274L592 269L599 269L601 264L610 265L616 262L621 260L629 260L643 266L653 266L658 263L663 262L668 265L668 270L673 273L670 274L672 281L671 282L673 287ZM587 261L591 259L595 260L596 262L600 264L599 265L594 266L588 270L586 267L589 263L587 261ZM563 267L559 273L555 270L556 262L555 259L557 256L561 259L561 265L563 267ZM542 234L547 238L551 239L553 238L555 242L554 244L551 243L544 242L541 243L539 242L538 244L547 254L551 256L551 257L540 252L536 247L537 247L535 245L534 243L531 242L530 244L529 242L529 240L532 240L533 239L536 241L538 236L542 234ZM510 228L509 231L514 232L513 235L511 236L508 235L507 237L504 236L499 239L495 235L493 236L493 233L497 230L496 228L504 228L505 227L510 228ZM493 213L494 217L493 217L492 216L492 213L493 213ZM494 209L492 216L487 214L485 214L480 209L477 209L477 207L488 205L494 209ZM497 192L498 194L497 200L496 202L493 202L494 209L488 205L484 206L481 205L483 204L487 194L493 192L497 192ZM423 261L427 259L428 261L434 261L435 264L433 265L432 273L430 273L432 277L431 280L432 282L430 285L430 287L429 288L424 288L424 281L422 280L421 278L424 267L423 261ZM430 287L430 285L432 282L431 280L432 277L430 273L432 273L433 265L435 264L434 261L428 261L427 259L423 261L423 257L421 254L428 250L445 252L456 252L458 254L467 257L468 256L474 258L479 257L479 261L475 264L469 266L464 275L466 278L463 280L462 284L458 285L455 289L445 289L440 293L438 293L435 288L430 287ZM436 190L437 194L434 200L425 203L419 202L422 196L420 189L430 181L431 185L430 188L436 190ZM1236 567L1242 573L1241 574L1235 570L1228 563L1230 563L1236 567ZM-438 567L-432 573L-434 574L-440 570L-446 563L-444 563L-438 567ZM1219 517L1220 518L1217 518L1215 515L1219 517ZM-455 517L-454 518L-457 518L-459 515L-455 517ZM1217 513L1216 513L1212 507L1214 507L1217 513ZM-457 513L-458 513L-462 507L-461 507L-457 513ZM1213 514L1209 514L1208 513L1208 511L1211 512L1213 514ZM-461 514L-466 514L-467 513L-466 511L-463 512L-461 514ZM1208 505L1209 508L1201 502L1208 505ZM-467 505L-465 508L-473 502L-467 505ZM1196 501L1198 502L1195 501L1193 499L1196 501ZM1254 684L1261 678L1265 673L1266 670L1269 667L1271 672L1274 670L1276 674L1268 683L1270 686L1267 686L1263 688L1259 698L1253 702L1240 700L1240 697L1242 693L1248 687L1254 684ZM-420 684L-413 678L-410 673L-409 670L-406 667L-404 672L-400 670L-399 674L-406 683L-404 686L-408 686L-412 688L-416 698L-422 702L-434 700L-435 697L-432 693L-426 687L-420 684ZM1152 669L1155 669L1155 676L1154 678L1153 682L1151 681L1148 685L1144 684L1138 671L1138 668L1146 671L1152 669ZM1052 623L1043 627L1040 632L1023 632L1020 635L1019 635L1014 638L1008 638L1000 633L1000 630L1003 628L1003 620L1001 615L1000 609L996 602L996 598L992 592L994 594L993 590L996 593L996 590L993 583L995 577L994 574L996 571L996 574L998 571L1008 565L1011 566L1020 562L1027 561L1034 553L1034 549L1037 545L1039 549L1041 548L1040 546L1041 543L1043 544L1044 541L1047 537L1050 536L1050 534L1052 535L1052 534L1056 532L1062 537L1068 538L1067 535L1069 532L1071 530L1071 529L1073 526L1075 525L1082 524L1082 522L1078 520L1081 520L1086 523L1094 525L1100 523L1102 526L1099 530L1097 530L1098 532L1095 537L1095 538L1108 547L1112 548L1113 549L1117 551L1120 549L1122 545L1124 538L1123 532L1125 527L1124 526L1126 519L1128 518L1133 528L1133 532L1135 536L1138 534L1141 538L1142 544L1144 547L1146 557L1157 564L1157 565L1159 568L1161 573L1163 572L1165 575L1166 574L1167 579L1176 588L1177 592L1177 598L1179 602L1177 616L1174 625L1171 627L1164 641L1163 650L1160 652L1155 652L1146 659L1139 656L1140 653L1133 658L1119 654L1116 650L1114 644L1112 641L1108 641L1109 638L1108 634L1106 638L1102 639L1106 630L1106 627L1099 633L1098 637L1094 635L1094 632L1089 626L1090 625L1076 619L1068 620L1056 623L1052 623ZM846 433L845 438L839 440L837 436L836 430L838 422L841 425L846 433ZM1032 352L1027 364L1024 360L1024 356L1030 348L1032 349L1032 352ZM514 232L517 233L517 232L522 231L523 233L529 234L529 237L530 240L526 239L522 241L522 245L524 248L528 251L530 256L536 260L539 260L540 262L539 263L551 269L550 272L548 270L544 269L542 272L545 274L544 277L542 278L540 282L538 283L540 277L537 271L529 265L525 264L517 258L514 255L513 249L506 247L500 251L500 248L498 247L497 243L498 241L497 237L499 239L504 236L507 237L508 235L511 236L513 235L514 232ZM534 281L537 281L535 289L523 284L524 281L534 281ZM506 266L508 265L511 268L510 276L508 275L506 277L504 276L503 266L506 266ZM511 182L508 183L505 183L503 179L503 172L505 168L509 168L514 164L514 168L513 170L513 172L516 173L515 175L513 175L510 179L511 182ZM523 175L524 178L521 184L516 180L516 177L523 175ZM436 190L430 188L431 185L430 181L434 181L439 185L436 190ZM451 192L451 189L448 185L443 184L441 182L443 179L442 177L439 180L439 174L437 171L438 164L442 158L451 158L446 165L456 165L455 170L451 176L455 176L460 185L463 186L467 195L473 197L472 201L470 203L472 206L468 209L461 209L454 211L451 209L448 212L444 212L441 214L438 213L445 206L449 205L442 204L441 201L445 199L443 196L444 192L451 192ZM398 101L397 106L402 112L396 117L378 124L359 120L364 117L354 113L362 112L362 110L352 108L355 103L362 102L369 107L376 103L382 105L390 101L398 101ZM681 261L688 265L691 261L696 268L699 270L696 270L694 276L692 278L692 280L691 281L688 278L690 275L689 273L681 278L681 274L677 272L679 270L676 268L677 267L674 264L675 263L681 265L682 265L680 262L681 261ZM680 278L677 277L673 273L678 274L680 278ZM651 252L662 253L669 257L672 256L677 257L678 260L681 261L680 262L682 265L679 265L675 263L668 265L663 262L658 263L659 260L658 257L651 252ZM1027 408L1025 405L1029 405L1030 407L1029 411L1027 408ZM1035 421L1037 417L1040 417L1039 420L1042 415L1042 420L1037 426L1034 422L1035 421ZM1053 429L1054 434L1052 439L1050 434L1048 436L1050 440L1048 442L1043 439L1042 436L1043 433L1040 431L1039 433L1036 433L1033 436L1032 434L1034 430L1039 427L1041 429L1045 428L1045 426L1049 426L1048 422L1052 424L1053 429ZM1016 424L1010 429L1019 419L1021 415L1022 419L1016 424ZM1034 382L1033 384L1035 388L1034 391L1031 393L1030 397L1031 401L1036 401L1042 403L1042 409L1037 404L1036 406L1033 403L1028 404L1026 403L1028 400L1026 399L1026 400L1023 396L1023 391L1025 393L1025 385L1027 381L1032 382L1034 381L1034 382ZM1033 414L1032 412L1038 414L1038 416L1033 419L1033 414ZM1049 411L1050 416L1047 415L1048 419L1046 420L1045 417L1044 417L1043 414L1046 414L1046 413L1043 409L1048 409L1049 411ZM931 438L931 437L935 439L936 441L939 441L940 439L944 442L946 445L947 455L948 456L950 462L947 462L937 455L931 443L932 440L931 438ZM1013 449L1004 448L998 461L994 462L990 461L985 464L979 464L976 462L975 458L979 460L982 459L983 455L991 453L996 447L998 449L999 448L1002 448L1002 442L1008 436L1010 436L1012 438L1013 440L1019 443L1019 444L1016 445L1017 447L1013 449ZM1002 442L1002 448L999 448L998 449L996 447L1002 442ZM529 234L533 235L540 232L542 234L538 236L536 241L533 239L532 240L529 240L530 240L529 237L529 234ZM598 81L597 86L605 92L600 98L606 106L603 113L607 119L605 123L612 128L610 132L596 145L587 146L571 150L569 146L564 144L565 137L563 130L570 121L583 112L583 108L576 105L575 102L575 90L561 80L564 78L569 82L575 82L580 84L585 80L587 74L594 72L600 75L598 81ZM570 219L567 224L562 222L548 227L544 225L544 223L545 221L548 220L551 217L555 216L557 218L560 217L566 217L570 219ZM535 207L537 209L541 209L540 211L543 212L544 211L547 211L547 213L551 214L553 217L550 218L548 220L545 221L544 222L536 219L532 222L523 216L522 212L532 207L535 207ZM635 400L634 398L637 388L641 386L644 383L648 393L665 408L664 410L662 409L655 402L651 400L647 399L644 400L641 398L640 401L635 400ZM1125 276L1121 281L1121 287L1119 291L1120 294L1117 297L1112 300L1103 300L1097 306L1094 304L1093 300L1085 301L1080 304L1074 304L1079 308L1076 317L1073 319L1071 317L1072 312L1069 311L1067 307L1071 305L1074 302L1082 296L1091 294L1096 295L1101 286L1104 288L1114 281L1117 274L1116 268L1118 265L1123 264L1125 271L1125 276ZM1138 249L1141 247L1142 253L1135 255L1131 260L1124 256L1121 262L1116 263L1115 257L1118 253L1123 252L1125 240L1131 246L1138 249ZM1081 306L1083 303L1086 304L1088 301L1091 303L1092 304L1089 307L1087 306L1085 307L1084 310L1081 309L1081 306ZM195 563L196 566L196 572L201 573L202 572L206 574L207 581L211 581L213 582L210 595L206 598L202 599L192 597L197 590L196 587L186 582L182 581L174 573L176 565L178 560L190 559L195 561L195 563ZM707 378L712 390L709 391L708 395L696 399L692 402L688 402L685 404L677 406L674 408L667 409L663 396L664 396L664 391L666 390L666 388L667 385L669 386L683 387L684 388L686 387L689 382L694 380L707 378ZM617 297L618 296L626 295L623 297L623 298L617 297ZM617 297L623 298L619 300L616 300L615 298L617 297ZM455 297L459 309L460 310L459 312L453 313L451 315L448 316L448 319L443 321L441 324L432 326L425 330L424 338L420 340L412 340L411 344L409 344L407 350L401 356L399 362L397 366L386 367L386 364L389 360L391 355L395 351L398 343L401 341L406 334L411 333L421 324L419 318L422 311L425 307L433 303L438 294L441 294L444 296L455 297ZM637 364L581 364L581 328L580 324L581 321L580 318L582 316L588 316L600 320L605 316L609 316L613 317L614 319L615 318L622 319L624 318L628 326L623 336L619 332L615 325L624 343L631 354L630 358L637 364ZM581 364L581 374L576 374L576 376L539 357L531 361L528 359L521 357L519 354L515 351L513 352L508 344L510 342L511 329L509 322L511 321L511 317L518 312L519 308L536 312L538 317L554 323L558 319L557 315L562 310L565 309L572 310L573 313L581 314L582 316L580 318L581 321L580 324L581 328L581 364ZM662 409L664 410L665 408L667 410L666 412L664 413L666 414L664 417L659 416L659 413L662 409ZM693 414L693 424L687 430L683 431L668 425L663 418L666 414L670 419L693 414ZM623 472L608 473L604 475L603 474L604 465L610 458L608 457L609 451L610 450L613 451L620 450L623 448L625 451L628 459L623 467L623 472ZM607 473L608 476L608 478L604 479L603 481L600 481L601 475L607 473ZM551 256L547 254L542 249L538 244L539 242L541 243L544 242L555 244L554 246L556 249L556 251L552 253L551 256ZM569 258L572 260L572 264L563 267L561 265L560 263L562 260L569 258ZM553 238L556 236L559 237L562 241L565 242L565 244L568 246L570 245L571 246L569 249L572 253L569 258L565 259L566 256L562 253L559 256L555 252L556 251L556 249L554 246L555 244L554 244L555 242L553 238ZM558 257L557 257L557 256L555 259L555 261L551 257L552 253L555 252L560 255L558 257ZM561 261L561 259L558 257L562 253L566 256L565 259L561 261ZM178 418L182 417L182 421L177 421L178 419L178 418ZM609 451L603 446L597 448L595 447L592 442L588 440L587 437L582 433L582 431L576 428L579 426L582 420L585 419L590 424L591 423L600 424L605 420L609 422L611 422L616 416L614 412L620 411L620 418L622 420L623 427L622 429L620 429L618 432L621 432L624 434L629 442L620 450L613 451L610 450L609 451Z"/>
</svg>